<svg xmlns="http://www.w3.org/2000/svg" viewBox="0 0 11.52 21"><title>Asset 4</title><g id="Layer_2" data-name="Layer 2"><g id="Layer_1-2" data-name="Layer 1"><g id="Smartphone"><path d="M9.82,0H1.69A1.69,1.69,0,0,0,0,1.69V19.31A1.69,1.69,0,0,0,1.69,21H9.82a1.7,1.7,0,0,0,1.7-1.69V1.69A1.7,1.7,0,0,0,9.82,0ZM8.05.68l-.2,1H3.66l-.2-1Zm2.79,18.63a1,1,0,0,1-1,1H1.69a1,1,0,0,1-1-1V1.69a1,1,0,0,1,1-1H2.77L3.05,2.1a.35.35,0,0,0,.34.27H8.13a.33.33,0,0,0,.33-.27L8.75.68H9.82a1,1,0,0,1,1,1Z"/><path d="M3.73,19h-2a.34.34,0,0,0-.34.34.35.35,0,0,0,.34.34h2a.34.34,0,0,0,.33-.34A.34.34,0,0,0,3.73,19Z"/><path d="M5.08,19H4.74a.34.34,0,0,0-.34.34.34.34,0,0,0,.34.34h.34a.34.34,0,0,0,.34-.34A.34.34,0,0,0,5.08,19Z"/></g></g></g></svg>