<svg xmlns="http://www.w3.org/2000/svg" xmlns:xlink="http://www.w3.org/1999/xlink" viewBox="0 0 116.63 23.59"><defs><style>.cls-1{fill:url(#Degradado_sin_nombre_4);}.cls-2{fill:#fff;}.cls-3{fill:url(#Degradado_sin_nombre_3);}.cls-4{fill:url(#linear-gradient);}.cls-5{fill:url(#Degradado_sin_nombre_10);}</style><linearGradient id="Degradado_sin_nombre_4" x1="50.96" y1="4.3" x2="34.98" y2="20.28" gradientUnits="userSpaceOnUse"><stop offset="0" stop-color="#0cf"/><stop offset="1" stop-color="#0080ff"/></linearGradient><linearGradient id="Degradado_sin_nombre_3" x1="113.32" y1="3.56" x2="97.33" y2="19.54" gradientUnits="userSpaceOnUse"><stop offset="0" stop-color="#ffe185"/><stop offset="0.21" stop-color="#ffbb36"/><stop offset="0.38" stop-color="#ff5176"/><stop offset="0.52" stop-color="#f63395"/><stop offset="0.74" stop-color="#a436d2"/><stop offset="1" stop-color="#5f4eed"/></linearGradient><linearGradient id="linear-gradient" x1="3.31" y1="3.31" x2="19.29" y2="19.29" gradientUnits="userSpaceOnUse"><stop offset="0" stop-color="#1677f1"/><stop offset="0.18" stop-color="#186ee9"/><stop offset="0.46" stop-color="#1d56d3"/><stop offset="0.82" stop-color="#262fb0"/><stop offset="1" stop-color="#2b189c"/></linearGradient><linearGradient id="Degradado_sin_nombre_10" x1="81.9" y1="4.09" x2="65.92" y2="20.07" gradientUnits="userSpaceOnUse"><stop offset="0" stop-color="#007bb8"/><stop offset="1" stop-color="#0044e9"/></linearGradient></defs><title>Asset 9</title><g id="Layer_2" data-name="Layer 2"><g id="Layer_1-2" data-name="Layer 1"><circle class="cls-1" cx="42.97" cy="12.29" r="11.3"/><path class="cls-2" d="M49.21,8.42A5.32,5.32,0,0,1,48,8.77c.2,0,.49-.39.61-.54A2.16,2.16,0,0,0,49,7.47s0,0,0-.06a.06.06,0,0,0-.07,0A6.55,6.55,0,0,1,47.45,8a.11.11,0,0,1-.11,0l-.13-.13a2.73,2.73,0,0,0-.71-.44,2.45,2.45,0,0,0-1.1-.17,2.53,2.53,0,0,0-1,.29,2.66,2.66,0,0,0-.84.69,2.55,2.55,0,0,0-.5,1,2.71,2.71,0,0,0,0,1.06c0,.06,0,.07-.05.06a7.92,7.92,0,0,1-5.08-2.58c-.06-.07-.09-.07-.14,0a2.58,2.58,0,0,0,.44,3l.31.27a2.69,2.69,0,0,1-1-.27c-.06,0-.09,0-.09.05a1.45,1.45,0,0,0,0,.29A2.6,2.6,0,0,0,39,13.19a1.19,1.19,0,0,0,.32.1,2.54,2.54,0,0,1-1,0c-.07,0-.09,0-.07.09a2.71,2.71,0,0,0,2,1.69l.28,0,0,0a3.28,3.28,0,0,1-1.38.73,5,5,0,0,1-2.09.27c-.12,0-.14,0-.17,0s0,0,0,.07a5.06,5.06,0,0,0,.44.26,6.5,6.5,0,0,0,1.4.56,7.48,7.48,0,0,0,7.24-1.69,7.63,7.63,0,0,0,2-5.55c0-.08.1-.12.15-.16a4.84,4.84,0,0,0,1-1,.3.3,0,0,0,.06-.19h0S49.26,8.39,49.21,8.42Z"/><circle class="cls-3" cx="105.32" cy="11.55" r="11.3"/><path class="cls-2" d="M108.83,7.28a.76.76,0,0,0-.77.77.77.77,0,0,0,.77.78.78.78,0,0,0,.78-.78A.77.77,0,0,0,108.83,7.28Z"/><path class="cls-2" d="M105.38,8.27a3.27,3.27,0,1,0,3.26,3.27A3.27,3.27,0,0,0,105.38,8.27Zm0,5.36a2.09,2.09,0,1,1,2.09-2.09A2.1,2.1,0,0,1,105.38,13.63Z"/><path class="cls-2" d="M108,18.16h-5.29a4,4,0,0,1-4-4V8.89a4,4,0,0,1,4-4H108a4,4,0,0,1,4,4v5.29A4,4,0,0,1,108,18.16Zm-5.29-12A2.73,2.73,0,0,0,100,8.89v5.29a2.74,2.74,0,0,0,2.73,2.74H108a2.74,2.74,0,0,0,2.73-2.74V8.89A2.73,2.73,0,0,0,108,6.16Z"/><path class="cls-4" d="M22.6,11.3A11.3,11.3,0,1,0,9.54,22.47v-7.9H6.67V11.3H9.54V8.81c0-2.83,1.68-4.4,4.26-4.4a16.64,16.64,0,0,1,2.53.23V7.42H14.91a1.63,1.63,0,0,0-1.84,1.76V11.3H16.2l-.5,3.27H13.07v7.9A11.31,11.31,0,0,0,22.6,11.3Z"/><path class="cls-2" d="M15.7,14.57l.5-3.27H13.07V9.18a1.63,1.63,0,0,1,1.84-1.76h1.42V4.64a16.64,16.64,0,0,0-2.53-.23c-2.58,0-4.26,1.57-4.26,4.4V11.3H6.67v3.27H9.54v7.9a11.3,11.3,0,0,0,1.76.13,11.53,11.53,0,0,0,1.77-.13v-7.9Z"/><circle class="cls-5" cx="73.91" cy="12.08" r="11.3"/><path class="cls-2" d="M69.17,10h2.19v7H69.17Zm1.1-3.5A1.27,1.27,0,1,1,69,7.75a1.26,1.26,0,0,1,1.27-1.27"/><path class="cls-2" d="M72.73,10h2.1v1h0A2.3,2.3,0,0,1,76.93,9.8c2.21,0,2.62,1.46,2.62,3.35V17H77.36V13.59c0-.82,0-1.86-1.13-1.86s-1.31.88-1.31,1.8V17H72.73Z"/></g></g></svg>