<svg xmlns="http://www.w3.org/2000/svg" xmlns:xlink="http://www.w3.org/1999/xlink" viewBox="0 0 22.6 22.6"><defs><style>.cls-1{fill:url(#Degradado_sin_nombre_3);}.cls-2{fill:#fff;}</style><linearGradient id="Degradado_sin_nombre_3" x1="19.29" y1="3.31" x2="3.31" y2="19.29" gradientUnits="userSpaceOnUse"><stop offset="0" stop-color="#ffe185"/><stop offset="0.21" stop-color="#ffbb36"/><stop offset="0.38" stop-color="#ff5176"/><stop offset="0.52" stop-color="#f63395"/><stop offset="0.74" stop-color="#a436d2"/><stop offset="1" stop-color="#5f4eed"/></linearGradient></defs><title>Asset 7</title><g id="Layer_2" data-name="Layer 2"><g id="Layer_1-2" data-name="Layer 1"><circle class="cls-1" cx="11.3" cy="11.3" r="11.3"/><path class="cls-2" d="M14.81,7A.77.77,0,0,0,14,7.8a.78.78,0,1,0,1.56,0A.77.77,0,0,0,14.81,7Z"/><path class="cls-2" d="M11.36,8a3.27,3.27,0,1,0,3.26,3.27A3.28,3.28,0,0,0,11.36,8Zm0,5.36a2.09,2.09,0,1,1,2.09-2.09A2.09,2.09,0,0,1,11.36,13.38Z"/><path class="cls-2" d="M14,17.91H8.66a4,4,0,0,1-4-4V8.64a4,4,0,0,1,4-4H14a4,4,0,0,1,4,4v5.29A4,4,0,0,1,14,17.91Zm-5.29-12A2.74,2.74,0,0,0,5.92,8.64v5.29a2.74,2.74,0,0,0,2.74,2.73H14a2.73,2.73,0,0,0,2.73-2.73V8.64A2.73,2.73,0,0,0,14,5.91Z"/></g></g></svg>