<svg xmlns="http://www.w3.org/2000/svg" xmlns:xlink="http://www.w3.org/1999/xlink" viewBox="0 0 22.6 22.6"><defs><style>.cls-1{fill:url(#Degradado_sin_nombre_4);}.cls-2{fill:#fff;}</style><linearGradient id="Degradado_sin_nombre_4" x1="19.29" y1="3.31" x2="3.31" y2="19.29" gradientUnits="userSpaceOnUse"><stop offset="0" stop-color="#0cf"/><stop offset="1" stop-color="#0080ff"/></linearGradient></defs><title>Asset 8</title><g id="Layer_2" data-name="Layer 2"><g id="Layer_1-2" data-name="Layer 1"><circle class="cls-1" cx="11.3" cy="11.3" r="11.3"/><path class="cls-2" d="M17.55,7.43a5.07,5.07,0,0,1-1.25.35c.2,0,.49-.39.61-.54a2.41,2.41,0,0,0,.42-.75.06.06,0,0,0,0-.07.07.07,0,0,0-.06,0A6.45,6.45,0,0,1,15.78,7a.11.11,0,0,1-.1,0l-.13-.14a2.5,2.5,0,0,0-.72-.43,2.28,2.28,0,0,0-1.1-.18,2.53,2.53,0,0,0-1,.29,2.8,2.8,0,0,0-.84.69,2.55,2.55,0,0,0-.5,1,2.76,2.76,0,0,0,0,1.07c0,.05,0,.06-.05.05A7.87,7.87,0,0,1,6.19,6.74c-.06-.07-.09-.07-.14,0a2.6,2.6,0,0,0,.44,3,2.85,2.85,0,0,0,.32.27,2.44,2.44,0,0,1-1-.27c-.06,0-.09,0-.1.05a1.42,1.42,0,0,0,0,.29,2.6,2.6,0,0,0,1.6,2.08,1.8,1.8,0,0,0,.33.1,3.13,3.13,0,0,1-1,0c-.07,0-.1,0-.07.08a2.7,2.7,0,0,0,2,1.7l.27,0,0,0a3.24,3.24,0,0,1-1.37.73,5,5,0,0,1-2.1.27c-.11,0-.14,0-.17,0s0,0,0,.07a3.78,3.78,0,0,0,.43.26,6.71,6.71,0,0,0,1.4.56,7.44,7.44,0,0,0,7.24-1.69,7.59,7.59,0,0,0,2-5.54c0-.08.09-.13.15-.17a5.26,5.26,0,0,0,1-1,.31.31,0,0,0,.07-.2h0S17.6,7.41,17.55,7.43Z"/></g></g></svg>