<svg xmlns="http://www.w3.org/2000/svg" xmlns:xlink="http://www.w3.org/1999/xlink" viewBox="0 0 22.6 22.6"><defs><style>.cls-1{fill:url(#Degradado_sin_nombre_10);}.cls-2{fill:#fff;}</style><linearGradient id="Degradado_sin_nombre_10" x1="19.29" y1="3.31" x2="3.31" y2="19.29" gradientUnits="userSpaceOnUse"><stop offset="0" stop-color="#007bb8"/><stop offset="1" stop-color="#0044e9"/></linearGradient></defs><title>Asset 5</title><g id="Layer_2" data-name="Layer 2"><g id="Layer_1-2" data-name="Layer 1"><circle class="cls-1" cx="11.3" cy="11.3" r="11.3"/><path class="cls-2" d="M6.56,9.2H8.75v7H6.56Zm1.1-3.5A1.27,1.27,0,1,1,6.39,7,1.26,1.26,0,0,1,7.66,5.7"/><path class="cls-2" d="M10.12,9.2h2.1v1h0A2.3,2.3,0,0,1,14.32,9c2.21,0,2.62,1.46,2.62,3.35v3.86H14.75V12.81c0-.82,0-1.86-1.13-1.86s-1.31.88-1.31,1.8v3.48H10.12Z"/></g></g></svg>