<svg xmlns="http://www.w3.org/2000/svg" xmlns:xlink="http://www.w3.org/1999/xlink" viewBox="0 0 22.6 22.6"><defs><style>.cls-1{fill:url(#linear-gradient);}.cls-2{fill:#fff;}</style><linearGradient id="linear-gradient" x1="3.31" y1="3.31" x2="19.29" y2="19.29" gradientUnits="userSpaceOnUse"><stop offset="0" stop-color="#1677f1"/><stop offset="0.18" stop-color="#186ee9"/><stop offset="0.46" stop-color="#1d56d3"/><stop offset="0.82" stop-color="#262fb0"/><stop offset="1" stop-color="#2b189c"/></linearGradient></defs><title>Asset 6</title><g id="Layer_2" data-name="Layer 2"><g id="Layer_1-2" data-name="Layer 1"><path class="cls-1" d="M22.6,11.3A11.3,11.3,0,1,0,9.54,22.47v-7.9H6.67V11.3H9.54V8.81c0-2.83,1.68-4.4,4.26-4.4a16.64,16.64,0,0,1,2.53.23V7.42H14.91a1.63,1.63,0,0,0-1.84,1.76V11.3H16.2l-.5,3.27H13.07v7.9A11.31,11.31,0,0,0,22.6,11.3Z"/><path class="cls-2" d="M15.7,14.57l.5-3.27H13.07V9.18a1.63,1.63,0,0,1,1.84-1.76h1.42V4.64a16.64,16.64,0,0,0-2.53-.23c-2.58,0-4.26,1.57-4.26,4.4V11.3H6.67v3.27H9.54v7.9a11.3,11.3,0,0,0,1.76.13,11.53,11.53,0,0,0,1.77-.13v-7.9Z"/></g></g></svg>